HIERARCHY
ROOT joint_Root
{
	OFFSET 0.0 0.0 0.0
	CHANNELS 6 Xposition Yposition Zposition Zrotation Xrotation Yrotation 
	JOINT Hips
	{
		OFFSET -0.726466 93.3139 -2.00062
		CHANNELS 6 Xposition Yposition Zposition Zrotation Xrotation Yrotation 
		JOINT Spine
		{
			OFFSET 15.7357 0.0 0.0
			CHANNELS 6 Xposition Yposition Zposition Zrotation Xrotation Yrotation 
			JOINT Chest
			{
				OFFSET 8.98455 -0.406207 0.0
				CHANNELS 6 Xposition Yposition Zposition Zrotation Xrotation Yrotation 
				JOINT Neck
				{
					OFFSET 16.3773 0.0 0.0
					CHANNELS 6 Xposition Yposition Zposition Zrotation Xrotation Yrotation 
					JOINT Head
					{
						OFFSET 6.45672 0.0 0.0
						CHANNELS 6 Xposition Yposition Zposition Zrotation Xrotation Yrotation 
						End Site
						{
							OFFSET 0.0 0.0 0.0
						}
					}
				}
				JOINT Shoulder_L
				{
					OFFSET 12.9942 -0.242716 4.98039
					CHANNELS 6 Xposition Yposition Zposition Zrotation Xrotation Yrotation 
					JOINT UpperArm_L
					{
						OFFSET 5.34809 0.0 0.0
						CHANNELS 6 Xposition Yposition Zposition Zrotation Xrotation Yrotation 
						JOINT LowerArm_L
						{
							OFFSET 24.3286 1.87007e-05 0.0
							CHANNELS 6 Xposition Yposition Zposition Zrotation Xrotation Yrotation 
							JOINT Hand_L
							{
								OFFSET 22.2916 0.0 0.0
								CHANNELS 6 Xposition Yposition Zposition Zrotation Xrotation Yrotation 
								End Site
								{
									OFFSET 0.0 0.0 0.0
								}
							}
						}
					}
				}
				JOINT Shoulder_R
				{
					OFFSET 12.9945 -0.242716 -4.98039
					CHANNELS 6 Xposition Yposition Zposition Zrotation Xrotation Yrotation 
					JOINT UpperArm_R
					{
						OFFSET -5.34813 0.0 0.0
						CHANNELS 6 Xposition Yposition Zposition Zrotation Xrotation Yrotation 
						JOINT LowerArm_R
						{
							OFFSET -24.3289 0.000322201 0.0
							CHANNELS 6 Xposition Yposition Zposition Zrotation Xrotation Yrotation 
							JOINT Hand_R
							{
								OFFSET -22.2915 -0.000108084 0.0
								CHANNELS 6 Xposition Yposition Zposition Zrotation Xrotation Yrotation 
								End Site
								{
									OFFSET 0.0 0.0 0.0
								}
							}
						}
					}
				}
			}
		}
		JOINT UpperLeg_L
		{
			OFFSET -2.19248 -6.46944 0.0
			CHANNELS 6 Xposition Yposition Zposition Zrotation Xrotation Yrotation 
			JOINT LowerLeg_L
			{
				OFFSET 39.0811 0.0 -1.23785e-05
				CHANNELS 6 Xposition Yposition Zposition Zrotation Xrotation Yrotation 
				JOINT Foot_L
				{
					OFFSET 40.9854 0.0 -1.26872e-05
					CHANNELS 6 Xposition Yposition Zposition Zrotation Xrotation Yrotation 
					JOINT Toes_L
					{
						OFFSET 11.7543 0.0 0.0
						CHANNELS 6 Xposition Yposition Zposition Zrotation Xrotation Yrotation 
						End Site
						{
							OFFSET 0.0 0.0 0.0
						}
					}
				}
			}
		}
		JOINT UpperLeg_R
		{
			OFFSET -2.19251 6.46944 0.0
			CHANNELS 6 Xposition Yposition Zposition Zrotation Xrotation Yrotation 
			JOINT LowerLeg_R
			{
				OFFSET -39.0811 -0.00228153 -0.0401928
				CHANNELS 6 Xposition Yposition Zposition Zrotation Xrotation Yrotation 
				JOINT Foot_R
				{
					OFFSET -40.9854 0.0 0.0
					CHANNELS 6 Xposition Yposition Zposition Zrotation Xrotation Yrotation 
					JOINT Toes_R
					{
						OFFSET -11.7543 0.0 0.0
						CHANNELS 6 Xposition Yposition Zposition Zrotation Xrotation Yrotation 
						End Site
						{
							OFFSET 0.0 0.0 0.0
						}
					}
				}
			}
		}
	}
}
MOTION
Frames:	6
Frame Time:	0.0333333
0.000000 0.000000 0.000000 0.000000 0.000000 -0.000000 -0.443103 83.244500 -15.923300 82.675700 -0.430084 -2.263230 15.735700 0.000005 -0.000001 85.442800 79.144100 -81.759700 8.984550 -0.406207 -0.000000 13.940400 -1.507070 7.553390 16.377300 -0.000001 -0.000001 0.994047 -0.688734 -1.551480 6.456720 -0.000001 -0.000000 -5.713530 1.771760 -4.711110 12.994200 -0.242716 4.980390 -88.513700 -4.470320 -71.587900 5.348090 -0.000007 -0.000001 -65.056200 30.440500 -3.749330 24.328600 0.000019 0.000005 -2.223750 -1.626860 -53.878700 22.291600 -0.000001 0.000005 1.175810 5.627590 -13.156900 12.994500 -0.242716 -4.980390 89.109100 2.354000 -69.261400 -5.348130 -0.000001 -0.000004 -47.291700 29.187000 -16.702400 -24.328900 0.000322 -0.000009 -0.527821 -0.395281 -53.103800 -22.291500 -0.000108 -0.000004 1.266900 5.606870 -11.758200 -2.192480 -6.469440 -0.000000 -169.455000 -6.348130 -7.268350 39.081100 -0.000007 -0.000012 -0.037885 -0.004050 96.117200 40.985400 -0.000006 -0.000013 8.175380 -9.583570 -40.013700 11.754300 -0.000000 0.000003 -0.007363 -0.082759 -19.946200 -2.192510 6.469440 -0.000001 -166.815000 5.432980 145.266000 -39.081100 -0.002282 -0.040193 0.188509 -0.119320 57.220400 -40.985400 0.000008 0.000006 9.797720 -7.635880 -74.192200 -11.754300 -0.000006 -0.000006 -0.004629 -0.057834 -18.926000
0.000000 0.000000 0.000000 0.000000 0.000000 -0.000000 -0.503366 81.772300 -7.725130 83.886000 -0.146104 -2.977890 15.735700 0.000005 -0.000001 86.096700 79.217400 -82.821000 8.984550 -0.406207 -0.000000 13.797100 -1.279320 6.708410 16.377300 -0.000001 -0.000001 0.751026 -1.228500 -1.184360 6.456720 -0.000001 -0.000000 -5.526760 0.870261 -4.938840 12.994200 -0.242716 4.980390 -88.496500 -4.446320 -71.295800 5.348090 -0.000007 -0.000001 -66.597900 31.403700 0.330021 24.328600 0.000019 0.000005 -1.319610 -1.232340 -46.840700 22.291600 -0.000001 0.000005 0.747984 5.626620 -13.080500 12.994500 -0.242716 -4.980390 89.208200 2.128680 -69.591800 -5.348130 -0.000001 -0.000004 -42.587700 25.832500 -27.142900 -24.328900 0.000322 -0.000009 1.811850 1.329320 -53.747600 -22.291500 -0.000108 -0.000004 1.608750 5.611070 -12.027500 -2.192480 -6.469440 -0.000000 -172.741000 -5.806570 -20.899800 39.081100 -0.000007 -0.000012 -0.281647 -0.093853 108.432000 40.985400 -0.000006 -0.000013 10.266400 -5.779350 -41.425800 11.754300 -0.000000 0.000003 -0.007950 -0.087634 -20.145300 -2.192510 6.469440 -0.000001 -168.474000 8.259240 148.627000 -39.081100 -0.002282 -0.040193 0.214355 -0.111563 62.152000 -40.985400 0.000008 0.000006 9.724080 -6.878980 -82.767700 -11.754300 -0.000006 -0.000006 -0.004074 -0.052207 -18.696800
0.000000 0.000000 0.000000 0.000000 0.000000 -0.000000 -0.159069 81.831200 0.936247 85.772300 -1.224120 -4.080750 15.735700 0.000005 -0.000001 91.353300 79.763000 -88.856700 8.984550 -0.406207 -0.000000 12.694700 0.586126 4.927660 16.377300 -0.000001 -0.000001 0.671674 -2.137170 -0.368649 6.456720 -0.000001 -0.000000 -4.785690 -1.172750 -5.688590 12.994200 -0.242716 4.980390 -88.516800 -4.216850 -70.599800 5.348090 -0.000007 -0.000001 -67.318700 31.301900 4.573110 24.328600 0.000019 0.000005 4.226710 4.255110 -44.885000 22.291600 -0.000001 0.000005 -1.457010 5.629010 -13.266100 12.994500 -0.242716 -4.980390 89.627600 0.996047 -69.500300 -5.348130 -0.000001 -0.000004 -41.545600 21.451900 -31.973800 -24.328900 0.000322 -0.000009 1.413840 0.899363 -57.613800 -22.291500 -0.000108 -0.000004 2.354540 5.604130 -11.596700 -2.192480 -6.469440 -0.000000 -177.059000 -6.821800 -32.375300 39.081100 -0.000007 -0.000012 -0.363935 -0.146179 111.885000 40.985400 -0.000006 -0.000013 10.122100 -5.197390 -46.462200 11.754300 -0.000000 0.000003 -0.008344 -0.090824 -20.275600 -2.192510 6.469440 -0.000001 -171.981000 9.233270 155.326000 -39.081100 -0.002282 -0.040193 0.193552 -0.106882 60.686400 -40.985400 0.000008 0.000006 8.816400 -5.237800 -87.412000 -11.754300 -0.000006 -0.000006 -0.486575 -0.603203 -19.675500
0.000000 0.000000 0.000000 0.000000 0.000000 -0.000000 0.583279 83.743300 10.119600 88.127300 -3.495280 -5.734550 15.735700 0.000005 -0.000001 98.569300 80.397800 -97.338700 8.984550 -0.406207 -0.000000 11.204400 2.876310 2.178160 16.377300 -0.000001 -0.000001 0.822556 -2.203930 0.378650 6.456720 -0.000001 -0.000000 -4.719670 -2.872740 -5.494340 12.994200 -0.242716 4.980390 -88.564400 -3.773030 -69.150700 5.348090 -0.000007 -0.000001 -67.117000 30.910800 8.993500 24.328600 0.000019 0.000005 2.487230 2.411940 -45.919900 22.291600 -0.000001 0.000005 -1.405380 5.633840 -13.631100 12.994500 -0.242716 -4.980390 89.861800 0.376255 -69.830900 -5.348130 -0.000001 -0.000004 -41.369600 18.172700 -33.736600 -24.328900 0.000322 -0.000009 0.383381 0.201256 -62.317600 -22.291500 -0.000108 -0.000004 3.249760 5.596030 -11.109900 -2.192480 -6.469440 -0.000000 177.783000 -8.401130 -40.485800 39.081100 -0.000007 -0.000012 -0.312154 -0.088346 105.805000 40.985400 -0.000006 -0.000013 9.263830 -6.269000 -51.954900 11.754300 -0.000000 0.000003 -0.007757 -0.086051 -20.080600 -2.192510 6.469440 -0.000001 -177.092000 10.111200 163.555000 -39.081100 -0.002282 -0.040193 0.090037 -0.064250 53.491800 -40.985400 0.000008 0.000006 8.905420 -0.787800 -83.663900 -11.754300 -0.000006 -0.000006 -2.410520 -2.444350 -25.477200
0.000000 0.000000 0.000000 0.000000 0.000000 -0.000000 1.346320 86.934300 19.632900 90.316200 -4.938720 -6.821110 15.735700 0.000005 -0.000001 103.886000 80.745400 -103.828000 8.984550 -0.406207 -0.000000 10.222400 4.414120 -0.279481 16.377300 -0.000001 -0.000001 1.074300 -1.957350 0.827491 6.456720 -0.000001 -0.000000 -4.742450 -3.744480 -5.148170 12.994200 -0.242716 4.980390 -88.437200 -3.877250 -68.027700 5.348090 -0.000007 -0.000001 -67.831200 28.919000 12.936700 24.328600 0.000019 0.000005 0.115574 0.107559 -47.028000 22.291600 -0.000001 0.000005 -0.376654 5.631610 -13.457200 12.994500 -0.242716 -4.980390 90.006500 -0.017729 -69.894900 -5.348130 -0.000001 -0.000004 -41.338300 16.958500 -34.226300 -24.328900 0.000322 -0.000009 0.794772 0.349052 -66.345300 -22.291500 -0.000108 -0.000004 3.798920 5.588680 -10.687500 -2.192480 -6.469440 -0.000000 173.832000 -8.433640 -43.970900 39.081100 -0.000007 -0.000012 -0.189728 -0.005868 91.774400 40.985400 -0.000006 -0.000013 7.271450 -8.252710 -57.171000 11.754300 -0.000000 0.000003 -0.006652 -0.076658 -19.697200 -2.192510 6.469440 -0.000001 178.042000 9.867830 171.895000 -39.081100 -0.002282 -0.040193 0.050817 -0.048296 44.554400 -40.985400 0.000008 0.000006 8.047090 3.093870 -72.348500 -11.754300 -0.000006 -0.000006 -0.104248 -0.454975 -35.583400
0.000000 0.000000 0.000000 0.000000 0.000000 -0.000000 1.938750 90.409100 28.983200 91.524800 -5.445030 -8.142900 15.735700 0.000005 -0.000001 107.369000 81.187300 -108.062000 8.984550 -0.406207 -0.000000 9.115880 5.225450 -1.803020 16.377300 -0.000001 -0.000001 1.583860 -1.721160 1.144010 6.456720 -0.000001 -0.000000 -4.747500 -4.316510 -4.634380 12.994200 -0.242716 4.980390 -88.035300 -4.710400 -67.327900 5.348090 -0.000007 -0.000001 -69.317500 25.996200 15.952100 24.328600 0.000019 0.000005 1.592640 1.449380 -47.699300 22.291600 -0.000001 0.000005 -0.782766 5.628310 -13.201500 12.994500 -0.242716 -4.980390 90.140000 -0.382163 -69.878900 -5.348130 -0.000001 -0.000004 -41.522300 17.688600 -33.980400 -24.328900 0.000322 -0.000009 0.003090 0.001918 -68.810000 -22.291500 -0.000108 -0.000004 3.750260 5.589740 -10.746900 -2.192480 -6.469440 -0.000000 171.820000 -7.675520 -43.802700 39.081100 -0.000007 -0.000012 -0.074987 0.025298 71.362000 40.985400 -0.000006 -0.000013 6.843370 -10.023700 -61.007900 11.754300 -0.000000 0.000003 -0.005778 -0.068816 -19.377300 -2.192510 6.469440 -0.000001 174.407000 11.784400 177.862000 -39.081100 -0.002282 -0.040193 0.049626 -0.063793 35.993800 -40.985400 0.000008 0.000006 7.527030 8.622970 -53.669700 -11.754300 -0.000006 -0.000006 -0.262827 -0.740505 -48.854900
